<mxfile host="65bd71144e" modified="2021-01-11T10:37:22.409Z" agent="5.0 (Windows NT 10.0; Win64; x64) AppleWebKit/537.36 (KHTML, like Gecko) Code/1.52.1 Chrome/83.0.4103.122 Electron/9.3.5 Safari/537.36" version="13.10.0" etag="tyNeg2amKSbd-MldyJ29" type="embed" pages="2">
    <diagram id="hBL5punl4gWNwzRPf0cf" name="Page-1">
        <mxGraphModel dx="1145" dy="667" grid="1" gridSize="10" guides="1" tooltips="1" connect="1" arrows="1" fold="1" page="1" pageScale="1" pageWidth="1169" pageHeight="827" math="0" shadow="0">
            <root>
                <mxCell id="0"/>
                <mxCell id="1" parent="0"/>
                <mxCell id="2" value="Root" style="ellipse;whiteSpace=wrap;html=1;" vertex="1" parent="1">
                    <mxGeometry x="310" y="20" width="120" height="80" as="geometry"/>
                </mxCell>
                <mxCell id="23" value="จ่าย" style="edgeStyle=none;rounded=0;orthogonalLoop=1;jettySize=auto;html=1;entryX=0.597;entryY=-0.025;entryDx=0;entryDy=0;entryPerimeter=0;" edge="1" parent="1" source="3" target="11">
                    <mxGeometry relative="1" as="geometry"/>
                </mxCell>
                <mxCell id="24" value="ไม่จ่าย" style="edgeStyle=none;rounded=0;orthogonalLoop=1;jettySize=auto;html=1;entryX=1;entryY=0.319;entryDx=0;entryDy=0;entryPerimeter=0;" edge="1" parent="1" source="3" target="11">
                    <mxGeometry relative="1" as="geometry"/>
                </mxCell>
                <mxCell id="28" value="มี" style="edgeStyle=none;rounded=0;orthogonalLoop=1;jettySize=auto;html=1;entryX=0.5;entryY=0;entryDx=0;entryDy=0;" edge="1" parent="1" source="3" target="8">
                    <mxGeometry relative="1" as="geometry"/>
                </mxCell>
                <mxCell id="3" value="กองทุนรวม" style="ellipse;whiteSpace=wrap;html=1;" vertex="1" parent="1">
                    <mxGeometry x="770" y="150" width="120" height="80" as="geometry"/>
                </mxCell>
                <mxCell id="5" value="กำไร" style="ellipse;whiteSpace=wrap;html=1;" vertex="1" parent="1">
                    <mxGeometry x="920" y="670" width="120" height="80" as="geometry"/>
                </mxCell>
                <mxCell id="21" value="มีผลต่อ" style="edgeStyle=none;rounded=0;orthogonalLoop=1;jettySize=auto;html=1;entryX=0.5;entryY=1;entryDx=0;entryDy=0;" edge="1" parent="1" source="6" target="5">
                    <mxGeometry relative="1" as="geometry"/>
                </mxCell>
                <mxCell id="22" value="มีผลต่อ" style="edgeStyle=none;rounded=0;orthogonalLoop=1;jettySize=auto;html=1;" edge="1" parent="1" source="6" target="11">
                    <mxGeometry relative="1" as="geometry"/>
                </mxCell>
                <mxCell id="6" value="เงินลงทุน" style="ellipse;whiteSpace=wrap;html=1;" vertex="1" parent="1">
                    <mxGeometry x="730" y="690" width="120" height="80" as="geometry"/>
                </mxCell>
                <mxCell id="7" value="ระยะเวลาการลงทุน" style="ellipse;whiteSpace=wrap;html=1;" vertex="1" parent="1">
                    <mxGeometry x="960" y="150" width="120" height="80" as="geometry"/>
                </mxCell>
                <mxCell id="29" value="มีผลต่อ" style="edgeStyle=none;rounded=0;orthogonalLoop=1;jettySize=auto;html=1;entryX=1;entryY=0;entryDx=0;entryDy=0;" edge="1" parent="1" source="8" target="5">
                    <mxGeometry relative="1" as="geometry"/>
                </mxCell>
                <mxCell id="8" value="ความเสี่ยง" style="ellipse;whiteSpace=wrap;html=1;" vertex="1" parent="1">
                    <mxGeometry x="980" y="340" width="120" height="80" as="geometry"/>
                </mxCell>
                <mxCell id="9" value="เป้าหมายการลงทุน" style="ellipse;whiteSpace=wrap;html=1;" vertex="1" parent="1">
                    <mxGeometry x="340" y="600" width="120" height="80" as="geometry"/>
                </mxCell>
                <mxCell id="13" value="ต้องการ" style="rounded=0;orthogonalLoop=1;jettySize=auto;html=1;" edge="1" parent="1" source="10" target="11">
                    <mxGeometry relative="1" as="geometry"/>
                </mxCell>
                <mxCell id="14" value="อยากได้" style="edgeStyle=none;rounded=0;orthogonalLoop=1;jettySize=auto;html=1;entryX=0.5;entryY=0;entryDx=0;entryDy=0;" edge="1" parent="1" source="10" target="5">
                    <mxGeometry relative="1" as="geometry"/>
                </mxCell>
                <mxCell id="15" value="มี" style="edgeStyle=none;rounded=0;orthogonalLoop=1;jettySize=auto;html=1;entryX=0.5;entryY=0;entryDx=0;entryDy=0;" edge="1" parent="1" source="10" target="6">
                    <mxGeometry relative="1" as="geometry"/>
                </mxCell>
                <mxCell id="16" value="มี" style="edgeStyle=none;rounded=0;orthogonalLoop=1;jettySize=auto;html=1;" edge="1" parent="1" source="10" target="9">
                    <mxGeometry relative="1" as="geometry"/>
                </mxCell>
                <mxCell id="17" value="จัดการ" style="edgeStyle=none;rounded=0;orthogonalLoop=1;jettySize=auto;html=1;" edge="1" parent="1" source="10" target="8">
                    <mxGeometry relative="1" as="geometry"/>
                </mxCell>
                <mxCell id="18" value="ใช้" style="edgeStyle=none;rounded=0;orthogonalLoop=1;jettySize=auto;html=1;" edge="1" parent="1" source="10" target="7">
                    <mxGeometry relative="1" as="geometry"/>
                </mxCell>
                <mxCell id="19" value="อยากลงทุน" style="edgeStyle=none;rounded=0;orthogonalLoop=1;jettySize=auto;html=1;entryX=0.569;entryY=0.996;entryDx=0;entryDy=0;entryPerimeter=0;" edge="1" parent="1" source="10" target="3">
                    <mxGeometry relative="1" as="geometry"/>
                </mxCell>
                <mxCell id="10" value="นักลงทุน" style="ellipse;whiteSpace=wrap;html=1;" vertex="1" parent="1">
                    <mxGeometry x="730" y="360" width="120" height="80" as="geometry"/>
                </mxCell>
                <mxCell id="11" value="ปันผล" style="ellipse;whiteSpace=wrap;html=1;" vertex="1" parent="1">
                    <mxGeometry x="440" y="390" width="120" height="80" as="geometry"/>
                </mxCell>
                <mxCell id="20" value="เป็นผู้ออก" style="edgeStyle=none;rounded=0;orthogonalLoop=1;jettySize=auto;html=1;" edge="1" parent="1" source="12" target="3">
                    <mxGeometry relative="1" as="geometry"/>
                </mxCell>
                <mxCell id="12" value="บลจ" style="ellipse;whiteSpace=wrap;html=1;" vertex="1" parent="1">
                    <mxGeometry x="370" y="150" width="120" height="80" as="geometry"/>
                </mxCell>
            </root>
        </mxGraphModel>
    </diagram>
    <diagram id="pNJxuBg1-X390WHa1x9L" name="Page-2">
        <mxGraphModel dx="1374" dy="800" grid="1" gridSize="10" guides="1" tooltips="1" connect="1" arrows="1" fold="1" page="1" pageScale="1" pageWidth="1169" pageHeight="827" math="0" shadow="0">
            <root>
                <mxCell id="hxNx-i2qnly7g-_exkPQ-0"/>
                <mxCell id="hxNx-i2qnly7g-_exkPQ-1" parent="hxNx-i2qnly7g-_exkPQ-0"/>
                <mxCell id="hxNx-i2qnly7g-_exkPQ-4" style="edgeStyle=none;rounded=0;orthogonalLoop=1;jettySize=auto;html=1;entryX=0.583;entryY=0;entryDx=0;entryDy=0;entryPerimeter=0;exitX=0;exitY=1;exitDx=0;exitDy=0;" edge="1" parent="hxNx-i2qnly7g-_exkPQ-1" source="hxNx-i2qnly7g-_exkPQ-2" target="hxNx-i2qnly7g-_exkPQ-3">
                    <mxGeometry relative="1" as="geometry">
                        <mxPoint x="341.7647058823529" y="375.294117647059" as="sourcePoint"/>
                    </mxGeometry>
                </mxCell>
                <mxCell id="hxNx-i2qnly7g-_exkPQ-8" style="edgeStyle=none;rounded=0;orthogonalLoop=1;jettySize=auto;html=1;entryX=0.5;entryY=0;entryDx=0;entryDy=0;" edge="1" parent="hxNx-i2qnly7g-_exkPQ-1" source="hxNx-i2qnly7g-_exkPQ-2" target="hxNx-i2qnly7g-_exkPQ-7">
                    <mxGeometry relative="1" as="geometry"/>
                </mxCell>
                <mxCell id="hxNx-i2qnly7g-_exkPQ-11" value="" style="edgeStyle=none;rounded=0;orthogonalLoop=1;jettySize=auto;html=1;" edge="1" parent="hxNx-i2qnly7g-_exkPQ-1" source="hxNx-i2qnly7g-_exkPQ-2" target="hxNx-i2qnly7g-_exkPQ-10">
                    <mxGeometry relative="1" as="geometry"/>
                </mxCell>
                <mxCell id="hxNx-i2qnly7g-_exkPQ-21" value="" style="edgeStyle=none;rounded=0;orthogonalLoop=1;jettySize=auto;html=1;" edge="1" parent="hxNx-i2qnly7g-_exkPQ-1" source="hxNx-i2qnly7g-_exkPQ-2" target="hxNx-i2qnly7g-_exkPQ-20">
                    <mxGeometry relative="1" as="geometry"/>
                </mxCell>
                <mxCell id="hxNx-i2qnly7g-_exkPQ-24" value="" style="edgeStyle=none;rounded=0;orthogonalLoop=1;jettySize=auto;html=1;" edge="1" parent="hxNx-i2qnly7g-_exkPQ-1" source="hxNx-i2qnly7g-_exkPQ-2" target="hxNx-i2qnly7g-_exkPQ-23">
                    <mxGeometry relative="1" as="geometry"/>
                </mxCell>
                <mxCell id="hxNx-i2qnly7g-_exkPQ-27" value="" style="edgeStyle=none;rounded=0;orthogonalLoop=1;jettySize=auto;html=1;" edge="1" parent="hxNx-i2qnly7g-_exkPQ-1" source="hxNx-i2qnly7g-_exkPQ-2" target="hxNx-i2qnly7g-_exkPQ-26">
                    <mxGeometry relative="1" as="geometry"/>
                </mxCell>
                <mxCell id="hxNx-i2qnly7g-_exkPQ-30" value="" style="edgeStyle=none;rounded=0;orthogonalLoop=1;jettySize=auto;html=1;" edge="1" parent="hxNx-i2qnly7g-_exkPQ-1" source="hxNx-i2qnly7g-_exkPQ-2" target="hxNx-i2qnly7g-_exkPQ-29">
                    <mxGeometry relative="1" as="geometry"/>
                </mxCell>
                <mxCell id="hxNx-i2qnly7g-_exkPQ-31" style="edgeStyle=none;rounded=0;orthogonalLoop=1;jettySize=auto;html=1;" edge="1" parent="hxNx-i2qnly7g-_exkPQ-1" source="hxNx-i2qnly7g-_exkPQ-2" target="hxNx-i2qnly7g-_exkPQ-32">
                    <mxGeometry relative="1" as="geometry">
                        <mxPoint x="860" y="250" as="targetPoint"/>
                    </mxGeometry>
                </mxCell>
                <mxCell id="hxNx-i2qnly7g-_exkPQ-2" value="กองทุน" style="ellipse;whiteSpace=wrap;html=1;" vertex="1" parent="hxNx-i2qnly7g-_exkPQ-1">
                    <mxGeometry x="410" y="300" width="120" height="80" as="geometry"/>
                </mxCell>
                <mxCell id="hxNx-i2qnly7g-_exkPQ-12" style="edgeStyle=none;rounded=0;orthogonalLoop=1;jettySize=auto;html=1;" edge="1" parent="hxNx-i2qnly7g-_exkPQ-1" source="hxNx-i2qnly7g-_exkPQ-3" target="hxNx-i2qnly7g-_exkPQ-13">
                    <mxGeometry relative="1" as="geometry">
                        <mxPoint x="160" y="640" as="targetPoint"/>
                    </mxGeometry>
                </mxCell>
                <mxCell id="hxNx-i2qnly7g-_exkPQ-16" value="" style="edgeStyle=none;rounded=0;orthogonalLoop=1;jettySize=auto;html=1;" edge="1" parent="hxNx-i2qnly7g-_exkPQ-1" source="hxNx-i2qnly7g-_exkPQ-3" target="hxNx-i2qnly7g-_exkPQ-15">
                    <mxGeometry relative="1" as="geometry"/>
                </mxCell>
                <mxCell id="hxNx-i2qnly7g-_exkPQ-3" value="ผลตอบแทน" style="ellipse;whiteSpace=wrap;html=1;" vertex="1" parent="hxNx-i2qnly7g-_exkPQ-1">
                    <mxGeometry x="290" y="450" width="120" height="80" as="geometry"/>
                </mxCell>
                <mxCell id="hxNx-i2qnly7g-_exkPQ-7" value="ชื่อ" style="ellipse;whiteSpace=wrap;html=1;" vertex="1" parent="hxNx-i2qnly7g-_exkPQ-1">
                    <mxGeometry x="50" y="390" width="120" height="80" as="geometry"/>
                </mxCell>
                <mxCell id="hxNx-i2qnly7g-_exkPQ-38" value="" style="edgeStyle=none;rounded=0;orthogonalLoop=1;jettySize=auto;html=1;" edge="1" parent="hxNx-i2qnly7g-_exkPQ-1" source="hxNx-i2qnly7g-_exkPQ-10" target="hxNx-i2qnly7g-_exkPQ-37">
                    <mxGeometry relative="1" as="geometry"/>
                </mxCell>
                <mxCell id="hxNx-i2qnly7g-_exkPQ-40" value="" style="edgeStyle=none;rounded=0;orthogonalLoop=1;jettySize=auto;html=1;" edge="1" parent="hxNx-i2qnly7g-_exkPQ-1" source="hxNx-i2qnly7g-_exkPQ-10" target="hxNx-i2qnly7g-_exkPQ-39">
                    <mxGeometry relative="1" as="geometry"/>
                </mxCell>
                <mxCell id="hxNx-i2qnly7g-_exkPQ-41" style="edgeStyle=none;rounded=0;orthogonalLoop=1;jettySize=auto;html=1;" edge="1" parent="hxNx-i2qnly7g-_exkPQ-1" source="hxNx-i2qnly7g-_exkPQ-10" target="hxNx-i2qnly7g-_exkPQ-42">
                    <mxGeometry relative="1" as="geometry">
                        <mxPoint x="680" y="730" as="targetPoint"/>
                    </mxGeometry>
                </mxCell>
                <mxCell id="hxNx-i2qnly7g-_exkPQ-10" value="สิ่งที่ลงทุน" style="ellipse;whiteSpace=wrap;html=1;" vertex="1" parent="hxNx-i2qnly7g-_exkPQ-1">
                    <mxGeometry x="460" y="580" width="120" height="80" as="geometry"/>
                </mxCell>
                <mxCell id="hxNx-i2qnly7g-_exkPQ-13" value="กำไร" style="ellipse;whiteSpace=wrap;html=1;" vertex="1" parent="hxNx-i2qnly7g-_exkPQ-1">
                    <mxGeometry x="110" y="600" width="120" height="80" as="geometry"/>
                </mxCell>
                <mxCell id="hxNx-i2qnly7g-_exkPQ-15" value="ปันผล" style="ellipse;whiteSpace=wrap;html=1;" vertex="1" parent="hxNx-i2qnly7g-_exkPQ-1">
                    <mxGeometry x="260" y="600" width="120" height="80" as="geometry"/>
                </mxCell>
                <mxCell id="hxNx-i2qnly7g-_exkPQ-18" style="edgeStyle=none;rounded=0;orthogonalLoop=1;jettySize=auto;html=1;entryX=0.5;entryY=0;entryDx=0;entryDy=0;" edge="1" parent="hxNx-i2qnly7g-_exkPQ-1" source="hxNx-i2qnly7g-_exkPQ-17" target="hxNx-i2qnly7g-_exkPQ-2">
                    <mxGeometry relative="1" as="geometry"/>
                </mxCell>
                <mxCell id="hxNx-i2qnly7g-_exkPQ-35" value="" style="edgeStyle=none;rounded=0;orthogonalLoop=1;jettySize=auto;html=1;" edge="1" parent="hxNx-i2qnly7g-_exkPQ-1" source="hxNx-i2qnly7g-_exkPQ-17" target="hxNx-i2qnly7g-_exkPQ-34">
                    <mxGeometry relative="1" as="geometry"/>
                </mxCell>
                <mxCell id="hxNx-i2qnly7g-_exkPQ-17" value="บลจ" style="ellipse;whiteSpace=wrap;html=1;" vertex="1" parent="hxNx-i2qnly7g-_exkPQ-1">
                    <mxGeometry x="410" y="70" width="120" height="80" as="geometry"/>
                </mxCell>
                <mxCell id="hxNx-i2qnly7g-_exkPQ-20" value="ชนิดกองทุน" style="ellipse;whiteSpace=wrap;html=1;" vertex="1" parent="hxNx-i2qnly7g-_exkPQ-1">
                    <mxGeometry x="610" y="560" width="120" height="80" as="geometry"/>
                </mxCell>
                <mxCell id="hxNx-i2qnly7g-_exkPQ-23" value="ความเสี่ยง" style="ellipse;whiteSpace=wrap;html=1;" vertex="1" parent="hxNx-i2qnly7g-_exkPQ-1">
                    <mxGeometry x="730" y="510" width="120" height="80" as="geometry"/>
                </mxCell>
                <mxCell id="hxNx-i2qnly7g-_exkPQ-26" value="เงินขั้นต่ำ" style="ellipse;whiteSpace=wrap;html=1;" vertex="1" parent="hxNx-i2qnly7g-_exkPQ-1">
                    <mxGeometry x="810" y="414" width="120" height="80" as="geometry"/>
                </mxCell>
                <mxCell id="hxNx-i2qnly7g-_exkPQ-29" value="ค่าธรรมเนียม" style="ellipse;whiteSpace=wrap;html=1;" vertex="1" parent="hxNx-i2qnly7g-_exkPQ-1">
                    <mxGeometry x="840" y="300" width="120" height="80" as="geometry"/>
                </mxCell>
                <mxCell id="hxNx-i2qnly7g-_exkPQ-32" value="มูลค่าของกองทุน" style="ellipse;whiteSpace=wrap;html=1;" vertex="1" parent="hxNx-i2qnly7g-_exkPQ-1">
                    <mxGeometry x="800" y="210" width="120" height="80" as="geometry"/>
                </mxCell>
                <mxCell id="hxNx-i2qnly7g-_exkPQ-34" value="ชื่อ" style="ellipse;whiteSpace=wrap;html=1;" vertex="1" parent="hxNx-i2qnly7g-_exkPQ-1">
                    <mxGeometry x="800" y="70" width="120" height="80" as="geometry"/>
                </mxCell>
                <mxCell id="hxNx-i2qnly7g-_exkPQ-37" value="ตราสารหนี้" style="ellipse;whiteSpace=wrap;html=1;" vertex="1" parent="hxNx-i2qnly7g-_exkPQ-1">
                    <mxGeometry x="350" y="730" width="120" height="80" as="geometry"/>
                </mxCell>
                <mxCell id="hxNx-i2qnly7g-_exkPQ-39" value="หุ้นกู้" style="ellipse;whiteSpace=wrap;html=1;" vertex="1" parent="hxNx-i2qnly7g-_exkPQ-1">
                    <mxGeometry x="500" y="730" width="120" height="80" as="geometry"/>
                </mxCell>
                <mxCell id="hxNx-i2qnly7g-_exkPQ-42" value="หุ้น" style="ellipse;whiteSpace=wrap;html=1;" vertex="1" parent="hxNx-i2qnly7g-_exkPQ-1">
                    <mxGeometry x="650" y="730" width="120" height="80" as="geometry"/>
                </mxCell>
            </root>
        </mxGraphModel>
    </diagram>
</mxfile>